HIERARCHY
ROOT Hips
{
  OFFSET 5.72205e-005 65.662 3.42586
  CHANNELS 6 Xposition Yposition Zposition Zrotation Xrotation Yrotation
  JOINT Chest
  {
    OFFSET 0 8.7983 -4.7612
    CHANNELS 6 Xposition Yposition Zposition Zrotation Xrotation Yrotation
    JOINT Chest2
    {
      OFFSET 0 8.0291 0.4195
      CHANNELS 6 Xposition Yposition Zposition Zrotation Xrotation Yrotation
      JOINT Chest3
      {
        OFFSET 0 9.9351 -2.2114
        CHANNELS 6 Xposition Yposition Zposition Zrotation Xrotation Yrotation
        JOINT Neck
        {
          OFFSET 0 22.3885 -0.4656
          CHANNELS 6 Xposition Yposition Zposition Zrotation Xrotation Yrotation
          JOINT Head
          {
            OFFSET -0.0001 12.643 3.4389
            CHANNELS 6 Xposition Yposition Zposition Zrotation Xrotation Yrotation
            End Site
            {
              OFFSET 0.0001 17.6655 0.5274
            }
          }
        }
        JOINT LeftCollar
        {
          OFFSET 2.2603 21.606 7.4023
          CHANNELS 6 Xposition Yposition Zposition Zrotation Xrotation Yrotation
          JOINT LeftShoulder
          {
            OFFSET 13.5163 -1.1332 -5.0146
            CHANNELS 6 Xposition Yposition Zposition Zrotation Xrotation Yrotation
            JOINT LeftElbow
            {
              OFFSET -0.0995 -28.05 -0.2431
              CHANNELS 6 Xposition Yposition Zposition Zrotation Xrotation Yrotation
              JOINT LeftWrist
              {
                OFFSET 0.0679 -23.3996 -0.1402
                CHANNELS 6 Xposition Yposition Zposition Zrotation Xrotation Yrotation
                JOINT LeftFinger1
                {
                  OFFSET 0.7932 -9.069 2.5189
                  CHANNELS 6 Xposition Yposition Zposition Zrotation Xrotation Yrotation
                  JOINT LeftFinger11
                  {
                    OFFSET -0.8272 -3.3923 0.5977
                    CHANNELS 6 Xposition Yposition Zposition Zrotation Xrotation Yrotation
                    JOINT LeftFinger12
                    {
                      OFFSET -0.5649 -2.3158 0.4082
                      CHANNELS 6 Xposition Yposition Zposition Zrotation Xrotation Yrotation
                      End Site
                      {
                        OFFSET -0.4919 -1.6479 0.2673
                      }
                    }
                  }
                }
                JOINT LeftFinger2
                {
                  OFFSET 0.9159 -9.2044 0.2193
                  CHANNELS 6 Xposition Yposition Zposition Zrotation Xrotation Yrotation
                  JOINT LeftFinger21
                  {
                    OFFSET 0.0117 -4.1944 -0.0248
                    CHANNELS 6 Xposition Yposition Zposition Zrotation Xrotation Yrotation
                    JOINT LeftFinger22
                    {
                      OFFSET 0.0071 -2.3249 -0.0142
                      CHANNELS 6 Xposition Yposition Zposition Zrotation Xrotation Yrotation
                      End Site
                      {
                        OFFSET -0.1475 -2.0882 0.0028
                      }
                    }
                  }
                }
                JOINT LeftFinger3
                {
                  OFFSET 0.6113 -8.7231 -2.0637
                  CHANNELS 6 Xposition Yposition Zposition Zrotation Xrotation Yrotation
                  JOINT LeftFinger31
                  {
                    OFFSET -0.1927 -3.8059 -0.2383
                    CHANNELS 6 Xposition Yposition Zposition Zrotation Xrotation Yrotation
                    JOINT LeftFinger32
                    {
                      OFFSET -0.1091 -2.1688 -0.1362
                      CHANNELS 6 Xposition Yposition Zposition Zrotation Xrotation Yrotation
                      End Site
                      {
                        OFFSET -0.2358 -1.9176 -0.0906
                      }
                    }
                  }
                }
                JOINT LeftFinger4
                {
                  OFFSET -0.6151 -8.0947 -3.5641
                  CHANNELS 6 Xposition Yposition Zposition Zrotation Xrotation Yrotation
                  JOINT LeftFinger41
                  {
                    OFFSET -0.4882 -2.341 -0.6462
                    CHANNELS 6 Xposition Yposition Zposition Zrotation Xrotation Yrotation
                    JOINT LeftFinger42
                    {
                      OFFSET -0.3575 -1.7167 -0.4742
                      CHANNELS 6 Xposition Yposition Zposition Zrotation Xrotation Yrotation
                      End Site
                      {
                        OFFSET -0.4187 -1.5237 -0.3496
                      }
                    }
                  }
                }
                JOINT LeftFinger0
                {
                  OFFSET -1.42 -1.8761 1.4223
                  CHANNELS 6 Xposition Yposition Zposition Zrotation Xrotation Yrotation
                  JOINT LeftFinger01
                  {
                    OFFSET -1.1471 -3.4929 2.6334
                    CHANNELS 6 Xposition Yposition Zposition Zrotation Xrotation Yrotation
                    JOINT LeftFinger02
                    {
                      OFFSET -0.823 -2.3 1.6571
                      CHANNELS 6 Xposition Yposition Zposition Zrotation Xrotation Yrotation
                      End Site
                      {
                        OFFSET -0.5822 -1.6914 1.1582
                      }
                    }
                  }
                }
              }
            }
          }
        }
        JOINT RightCollar
        {
          OFFSET -2.2603 21.606 7.4023
          CHANNELS 6 Xposition Yposition Zposition Zrotation Xrotation Yrotation
          JOINT RightShoulder
          {
            OFFSET -13.5187 -1.1334 -5.0155
            CHANNELS 6 Xposition Yposition Zposition Zrotation Xrotation Yrotation
            JOINT RightElbow
            {
              OFFSET 0.0994 -28.0499 -0.2431
              CHANNELS 6 Xposition Yposition Zposition Zrotation Xrotation Yrotation
              JOINT RightWrist
              {
                OFFSET -0.0679 -23.3996 -0.1402
                CHANNELS 6 Xposition Yposition Zposition Zrotation Xrotation Yrotation
                JOINT RightFinger1
                {
                  OFFSET -0.7932 -9.0691 2.5189
                  CHANNELS 6 Xposition Yposition Zposition Zrotation Xrotation Yrotation
                  JOINT RightFinger11
                  {
                    OFFSET 0.8272 -3.3923 0.5977
                    CHANNELS 6 Xposition Yposition Zposition Zrotation Xrotation Yrotation
                    JOINT RightFinger12
                    {
                      OFFSET 0.565 -2.3158 0.4082
                      CHANNELS 6 Xposition Yposition Zposition Zrotation Xrotation Yrotation
                      End Site
                      {
                        OFFSET 0.4919 -1.6479 0.2673
                      }
                    }
                  }
                }
                JOINT RightFinger2
                {
                  OFFSET -0.916 -9.2044 0.2193
                  CHANNELS 6 Xposition Yposition Zposition Zrotation Xrotation Yrotation
                  JOINT RightFinger21
                  {
                    OFFSET -0.0117 -4.1944 -0.0248
                    CHANNELS 6 Xposition Yposition Zposition Zrotation Xrotation Yrotation
                    JOINT RightFinger22
                    {
                      OFFSET -0.0071 -2.3249 -0.0142
                      CHANNELS 6 Xposition Yposition Zposition Zrotation Xrotation Yrotation
                      End Site
                      {
                        OFFSET 0.1475 -2.0882 0.0028
                      }
                    }
                  }
                }
                JOINT RightFinger3
                {
                  OFFSET -0.6113 -8.7231 -2.0637
                  CHANNELS 6 Xposition Yposition Zposition Zrotation Xrotation Yrotation
                  JOINT RightFinger31
                  {
                    OFFSET 0.1927 -3.8059 -0.2383
                    CHANNELS 6 Xposition Yposition Zposition Zrotation Xrotation Yrotation
                    JOINT RightFinger32
                    {
                      OFFSET 0.1091 -2.1688 -0.1362
                      CHANNELS 6 Xposition Yposition Zposition Zrotation Xrotation Yrotation
                      End Site
                      {
                        OFFSET 0.2358 -1.9176 -0.0906
                      }
                    }
                  }
                }
                JOINT RightFinger4
                {
                  OFFSET 0.6151 -8.0947 -3.564
                  CHANNELS 6 Xposition Yposition Zposition Zrotation Xrotation Yrotation
                  JOINT RightFinger41
                  {
                    OFFSET 0.4882 -2.341 -0.6462
                    CHANNELS 6 Xposition Yposition Zposition Zrotation Xrotation Yrotation
                    JOINT RightFinger42
                    {
                      OFFSET 0.3574 -1.7166 -0.4742
                      CHANNELS 6 Xposition Yposition Zposition Zrotation Xrotation Yrotation
                      End Site
                      {
                        OFFSET 0.4187 -1.5237 -0.3496
                      }
                    }
                  }
                }
                JOINT RightFinger0
                {
                  OFFSET 1.4199 -1.8761 1.4221
                  CHANNELS 6 Xposition Yposition Zposition Zrotation Xrotation Yrotation
                  JOINT RightFinger01
                  {
                    OFFSET 1.1472 -3.4929 2.6336
                    CHANNELS 6 Xposition Yposition Zposition Zrotation Xrotation Yrotation
                    JOINT RightFinger02
                    {
                      OFFSET 0.8229 -2.3 1.6571
                      CHANNELS 6 Xposition Yposition Zposition Zrotation Xrotation Yrotation
                      End Site
                      {
                        OFFSET 0.5822 -1.6914 1.1582
                      }
                    }
                  }
                }
              }
            }
          }
        }
      }
    }
  }
  JOINT RightHip
  {
    OFFSET -9.412 3.9771 -0.7758
    CHANNELS 6 Xposition Yposition Zposition Zrotation Xrotation Yrotation
    JOINT RightKnee
    {
      OFFSET -0.7531 -40.938 0
      CHANNELS 6 Xposition Yposition Zposition Zrotation Xrotation Yrotation
      JOINT RightAnkle
      {
        OFFSET 0 -40.1986 0
        CHANNELS 6 Xposition Yposition Zposition Zrotation Xrotation Yrotation
        JOINT RightToe
        {
          OFFSET 0 -4.4182 9.239
          CHANNELS 6 Xposition Yposition Zposition Zrotation Xrotation Yrotation
          End Site
          {
            OFFSET 0 0 6.1981
          }
        }
      }
    }
  }
  JOINT LeftHip
  {
    OFFSET 9.4119 3.9773 -0.7758
    CHANNELS 6 Xposition Yposition Zposition Zrotation Xrotation Yrotation
    JOINT LeftKnee
    {
      OFFSET 0.7532 -40.9383 0
      CHANNELS 6 Xposition Yposition Zposition Zrotation Xrotation Yrotation
      JOINT LeftAnkle
      {
        OFFSET 0 -40.1986 0
        CHANNELS 6 Xposition Yposition Zposition Zrotation Xrotation Yrotation
        JOINT LeftToe
        {
          OFFSET 0 -4.4182 9.239
          CHANNELS 6 Xposition Yposition Zposition Zrotation Xrotation Yrotation
          End Site
          {
            OFFSET 0 0 6.1981
          }
        }
      }
    }
  }
}
MOTION
Frames:	4
Frame Time:	0.0333333
0.0173548 11.65 -4.11188 -180 -22.9329 -180 3.46945e-018 8.7983 -4.7612 0.887932 18.135 -0.623958 6.93889e-018 8.0291 0.4195 2.17521 36.2556 -1.70198 -1.11022e-016 9.9351 -2.2114 2.17519 36.2553 -1.70196 -2.22045e-016 22.3885 -0.4656 -0.000113998 36.222 5.89314e-005 -0.0001 12.643 3.4389 -3.77444e-007 -5.24661 -1.85661e-006 2.2603 21.606 7.4023 -13.984 -0.0766377 -23.9054 13.5163 -1.1332 -5.0146 37.376 3.91253 16.5441 -0.0995 -28.05 -0.2431 -21.6294 -59.8875 39.8848 0.0679 -23.3996 -0.1402 -27.787 16.1963 -23.3026 0.7932 -9.069 2.5189 -3.18055e-015 9.54166e-015 3.18055e-015 -0.8272 -3.3923 0.5977 6.36111e-015 3.18055e-015 -0 -0.5649 -2.3158 0.4082 3.18055e-015 0 -6.36111e-015 0.915901 -9.2044 0.2193 -3.18055e-015 9.54166e-015 3.18055e-015 0.0117 -4.1944 -0.0248 -0.0127776 0.00231136 8.6711e-005 0.0071 -2.3249 -0.0142 -0 -3.18055e-015 -0 0.6113 -8.7231 -2.0637 -3.18055e-015 9.54166e-015 3.18055e-015 -0.1927 -3.8059 -0.2383 -0.0160469 0.00299919 0.000855635 -0.1091 -2.1688 -0.1362 -0 0 3.18055e-015 -0.6151 -8.0947 -3.5641 -3.18055e-015 9.54166e-015 3.18055e-015 -0.4882 -2.341 -0.6462 -0.0125991 0.00311877 0.00283188 -0.3575 -1.7167 -0.4742 -9.54166e-015 -1.59028e-014 -0 -1.42 -1.8761 1.4223 -3.18055e-015 9.54166e-015 3.18055e-015 -1.1471 -3.4929 2.6334 6.36111e-015 3.18055e-015 -0 -0.823 -2.3 1.6571 3.18055e-015 0 -6.36111e-015 -2.2603 21.606 7.4023 13.3602 -0.0487127 18.679 -13.5187 -1.1334 -5.0155 -37.8362 1.88717 -12.293 0.0994 -28.0499 -0.2431 19.9975 -58.634 -41.9377 -0.0679 -23.3996 -0.1402 29.1153 14.4992 25.1588 -0.7932 -9.0691 2.5189 -3.18055e-015 6.36111e-015 -3.18055e-015 0.8272 -3.3923 0.5977 -6.36111e-015 -9.54166e-015 -0 0.565 -2.3158 0.4082 -3.18055e-015 0 -0 -0.916 -9.2044 0.2193 -3.18055e-015 6.36111e-015 -3.18055e-015 -0.0117 -4.1944 -0.0248 0.0129502 0.00231674 -8.25105e-005 -0.0071 -2.3249 -0.0142 -3.18055e-015 6.36111e-015 -3.18055e-015 -0.6113 -8.7231 -2.0637 -3.18055e-015 6.36111e-015 -3.18055e-015 0.1927 -3.8059 -0.2383 0.0163362 0.00303287 -0.000868834 0.1091 -2.1688 -0.1362 -0 -3.18055e-015 -0 0.6151 -8.0947 -3.564 -3.18055e-015 6.36111e-015 -3.18055e-015 0.4882 -2.341 -0.6462 0.0145998 0.00368268 -0.00325272 0.3574 -1.7166 -0.4742 -1.91156e-008 -6.06225e-006 -6.19806e-006 1.4199 -1.8761 1.4221 -3.18055e-015 6.36111e-015 -3.18055e-015 1.1472 -3.4929 2.6336 -6.36111e-015 -9.54166e-015 -0 0.8229 -2.3 1.6571 -3.18055e-015 0 -0 -9.412 3.9771 -0.7758 -132.13 -57.7722 -153.966 -0.7531 -40.938 -8.88178e-016 76.664 18.4151 -96.5043 0 -40.1986 7.10543e-015 1.50554 4.54379 -6.37907 1.77636e-015 -4.4182 9.239 4.4921e-007 3.18055e-015 6.96322e-007 9.4119 3.9773 -0.7758 135.485 -57.8909 155.454 0.7532 -40.9383 0 -76.343 13.1685 61.24 -3.55271e-015 -40.1986 0 1.74635 4.59543 5.21523 -3.55271e-015 -4.4182 9.239 -8.99264e-007 1.01006e-007 -1.36292e-006 
0.0180814 11.6509 -4.07778 -180 -22.9329 -180 0 8.7983 -4.7612 0.887932 18.135 -0.623958 0 8.0291 0.4195 2.17521 36.2556 -1.70198 0 9.9351 -2.2114 2.17519 36.2553 -1.70196 4.44089e-016 22.3885 -0.4656 -0.000112979 35.9926 5.97352e-005 -0.0001 12.643 3.4389 -2.77041e-007 -4.6181 1.00571e-007 2.2603 21.606 7.4023 -13.8701 -0.113369 -23.8492 13.5163 -1.1332 -5.0146 37.2765 3.8886 16.538 -0.0995 -28.05 -0.2431 -21.6293 -59.8877 39.8847 0.0679 -23.3996 -0.1402 -27.787 16.1963 -23.3026 0.7932 -9.069 2.5189 1.91633e-006 5.55381e-006 1.70318e-006 -0.8272 -3.3923 0.5977 -3.88779e-006 -6.51563e-006 5.75813e-007 -0.5649 -2.3158 0.4082 2.75634e-008 -3.17793e-006 -1.99109e-006 0.9159 -9.2044 0.2193 1.91633e-006 5.55381e-006 1.70318e-006 0.0117 -4.1944 -0.0248 -0.0128322 0.0023217 8.1901e-005 0.0071 -2.3249 -0.0142 -3.8624e-006 -5.78433e-006 -1.41542e-006 0.6113 -8.7231 -2.0637 1.91633e-006 5.55381e-006 1.70318e-006 -0.1927 -3.8059 -0.2383 -0.0160569 0.00299509 0.000852288 -0.1091 -2.1688 -0.1362 -1.16821e-005 -5.3519e-006 -6.7596e-007 -0.6151 -8.0947 -3.5641 1.91633e-006 5.55381e-006 1.70318e-006 -0.4882 -2.341 -0.6462 -0.0126098 0.00312537 0.00282092 -0.3575 -1.7167 -0.4742 -4.71233e-006 -1.1664e-005 3.36392e-006 -1.42 -1.8761 1.4223 1.91633e-006 5.55381e-006 1.70318e-006 -1.1471 -3.4929 2.6334 -3.88779e-006 -6.51563e-006 5.75813e-007 -0.823 -2.3 1.6571 2.75634e-008 -3.17793e-006 -1.99109e-006 -2.2603 21.606 7.4023 13.2349 -0.0865481 18.6117 -13.5187 -1.1334 -5.0155 -37.7173 1.86773 -12.2794 0.0994 -28.0499 -0.2431 20.1415 -58.6731 -41.8102 -0.0679 -23.3996 -0.1402 29.0292 14.5549 25.1215 -0.7932 -9.0691 2.5189 6.85568e-007 1.11367e-006 -6.02129e-006 0.8272 -3.3923 0.5977 9.54166e-015 0 -9.54166e-015 0.565 -2.3158 0.4082 -3.18055e-015 0 -3.18055e-015 -0.916 -9.2044 0.2193 6.85568e-007 1.11367e-006 -6.02129e-006 -0.0117 -4.1944 -0.0248 0.0129665 0.00232128 -8.20992e-005 -0.0071 -2.3249 -0.0142 6.36111e-015 -1.27222e-014 -3.18055e-015 -0.6113 -8.7231 -2.0637 6.85568e-007 1.11367e-006 -6.02129e-006 0.1927 -3.8059 -0.2383 0.0163347 0.00303905 -0.000868401 0.1091 -2.1688 -0.1362 -2.22639e-014 3.18055e-015 3.18055e-015 0.6151 -8.0947 -3.564 6.85568e-007 1.11367e-006 -6.02129e-006 0.4882 -2.341 -0.6462 0.0145884 0.00367968 -0.00326543 0.3574 -1.7166 -0.4742 3.18055e-015 -1.59028e-014 -3.18055e-015 1.4199 -1.8761 1.4221 6.85568e-007 1.11367e-006 -6.02129e-006 1.1472 -3.4929 2.6336 9.54166e-015 0 -9.54166e-015 0.8229 -2.3 1.6571 -3.18055e-015 0 -3.18055e-015 -9.412 3.9771 -0.7758 -132.13 -57.7712 -153.966 -0.7531 -40.938 0 76.6644 18.4151 -96.505 8.88178e-016 -40.1986 0 1.50482 4.54418 -6.37899 -3.55271e-015 -4.4182 9.239 -2.96839e-008 -1.23724e-006 9.847e-007 9.4119 3.9773 -0.7758 135.475 -57.8922 155.448 0.7532 -40.9383 8.88179e-016 -76.2652 13.2232 61.2202 3.55271e-015 -40.1986 7.10543e-015 1.74483 4.59971 5.22023 -3.55271e-015 -4.4182 9.239 -1.23438e-005 -5.34294e-006 2.84407e-006 
0.0188079 11.6518 -4.04367 -180 -22.9329 -180 0 8.7983 -4.7612 0.887932 18.135 -0.623958 1.38778e-017 8.0291 0.4195 2.17521 36.2556 -1.70198 -5.55112e-017 9.9351 -2.2114 2.17518 36.2553 -1.70196 -3.33067e-016 22.3885 -0.4656 -0.000113827 35.7633 5.88128e-005 -0.0001 12.643 3.4389 8.67692e-007 -3.98967 1.29519e-006 2.2603 21.606 7.4023 -13.7561 -0.149956 -23.7929 13.5163 -1.1332 -5.0146 37.1773 3.86434 16.5318 -0.0995 -28.05 -0.2431 -21.6293 -59.8875 39.8848 0.0679 -23.3996 -0.1402 -27.787 16.1963 -23.3026 0.7932 -9.069 2.5189 -1.27222e-014 6.36111e-015 -0 -0.8272 -3.3923 0.5977 -6.36111e-015 9.54166e-015 -0 -0.5649 -2.3158 0.4082 -3.18055e-015 3.18055e-015 -0 0.9159 -9.2044 0.2193 -1.27222e-014 6.36111e-015 -0 0.0117 -4.1944 -0.0248 -0.0128281 0.00232459 8.67898e-005 0.0071 -2.3249 -0.0142 6.36111e-015 3.18055e-015 3.18055e-015 0.6113 -8.7231 -2.0637 -1.27222e-014 6.36111e-015 -0 -0.1927 -3.8059 -0.2383 -0.0160213 0.00298504 0.000845027 -0.1091 -2.1688 -0.1362 -3.18055e-015 3.18055e-015 -0 -0.6151 -8.0947 -3.5641 -1.27222e-014 6.36111e-015 -0 -0.4882 -2.341 -0.6462 -0.012633 0.00312675 0.00283772 -0.3575 -1.7167 -0.4742 6.36111e-015 6.36111e-015 6.36111e-015 -1.42 -1.8761 1.4223 -1.27222e-014 6.36111e-015 -0 -1.1471 -3.4929 2.6334 -6.36111e-015 9.54166e-015 -0 -0.823 -2.3 1.6571 -3.18055e-015 3.18055e-015 -0 -2.2603 21.606 7.4023 13.1096 -0.124263 18.5444 -13.5187 -1.1334 -5.0155 -37.5989 1.84784 -12.2657 0.0994 -28.0499 -0.2431 20.2856 -58.7115 -41.6829 -0.0679 -23.3996 -0.1402 28.9431 14.6107 25.0844 -0.7932 -9.0691 2.5189 -1.1776e-005 -1.40377e-006 6.98882e-006 0.8272 -3.3923 0.5977 1.24918e-005 3.24989e-006 2.49971e-006 0.565 -2.3158 0.4082 -5.88222e-006 -7.58222e-006 6.59976e-006 -0.916 -9.2044 0.2193 -1.1776e-005 -1.40377e-006 6.98882e-006 -0.0117 -4.1944 -0.0248 0.0129343 0.00231955 -8.08528e-005 -0.0071 -2.3249 -0.0142 -3.18055e-015 9.54166e-015 -9.54166e-015 -0.6113 -8.7231 -2.0637 -1.1776e-005 -1.40377e-006 6.98882e-006 0.1927 -3.8059 -0.2383 0.016345 0.00303621 -0.00087324 0.1091 -2.1688 -0.1362 3.18055e-015 -1.27222e-014 3.18055e-015 0.6151 -8.0947 -3.564 -1.1776e-005 -1.40377e-006 6.98882e-006 0.4882 -2.341 -0.6462 0.0146187 0.00368333 -0.0032626 0.3574 -1.7166 -0.4742 -6.36111e-015 -6.36111e-015 -0 1.4199 -1.8761 1.4221 -1.1776e-005 -1.40377e-006 6.98882e-006 1.1472 -3.4929 2.6336 1.24918e-005 3.24989e-006 2.49971e-006 0.8229 -2.3 1.6571 -5.88222e-006 -7.58222e-006 6.59976e-006 -9.412 3.9771 -0.7758 -132.13 -57.7701 -153.966 -0.7531 -40.938 -8.88178e-016 76.6647 18.4151 -96.5058 1.77636e-015 -40.1986 0 1.50415 4.54457 -6.37898 -1.77636e-015 -4.4182 9.239 1.59028e-015 -3.18055e-015 3.18055e-015 9.4119 3.9773 -0.7758 135.464 -57.8936 155.442 0.7532 -40.9383 -8.88178e-016 -76.1874 13.2779 61.2004 3.55271e-015 -40.1986 -7.10543e-015 1.74323 4.60405 5.22515 0 -4.4182 9.239 1.55533e-023 2.80183e-007 -3.18055e-015 
0.0195349 11.6527 -4.00957 -180 -22.9329 -180 0 8.7983 -4.7612 0.887932 18.135 -0.623958 1.38778e-017 8.0291 0.4195 2.17521 36.2556 -1.70198 -1.66533e-016 9.9351 -2.2114 2.17519 36.2553 -1.70196 3.33067e-016 22.3885 -0.4656 -0.000113513 35.534 5.94624e-005 -0.0001 12.643 3.4389 -6.48233e-009 -3.36136 2.96203e-007 2.2603 21.606 7.4023 -13.6422 -0.186433 -23.7366 13.5163 -1.1332 -5.0146 37.078 3.84028 16.5256 -0.0995001 -28.05 -0.2431 -21.6293 -59.8875 39.8848 0.0679001 -23.3996 -0.1402 -27.787 16.1963 -23.3026 0.7932 -9.069 2.5189 -1.05934e-030 -6.36111e-015 -9.54166e-015 -0.8272 -3.3923 0.5977 9.54166e-015 0 -3.18055e-015 -0.5649 -2.3158 0.4082 1.27222e-014 0 -3.18055e-015 0.915901 -9.2044 0.2193 -1.05934e-030 -6.36111e-015 -9.54166e-015 0.0117 -4.1944 -0.0248 -0.0127958 0.00231935 8.65059e-005 0.0071 -2.3249 -0.0142 -9.54166e-015 3.18055e-015 3.18055e-015 0.6113 -8.7231 -2.0637 -1.05934e-030 -6.36111e-015 -9.54166e-015 -0.1927 -3.8059 -0.2383 -0.0160423 0.00299853 0.000855836 -0.1091 -2.1688 -0.1362 -9.54166e-015 0 -0 -0.6151 -8.0947 -3.5641 -1.05934e-030 -6.36111e-015 -9.54166e-015 -0.4882 -2.341 -0.6462 -0.0125346 0.00311918 0.00282696 -0.3575 -1.7167 -0.4742 -6.36111e-015 3.18055e-015 6.36111e-015 -1.42 -1.8761 1.4223 -1.05934e-030 -6.36111e-015 -9.54166e-015 -1.1471 -3.4929 2.6334 9.54166e-015 0 -3.18055e-015 -0.823001 -2.3 1.6571 1.27222e-014 0 -3.18055e-015 -2.2603 21.606 7.4023 12.9842 -0.16181 18.4769 -13.5187 -1.1334 -5.0155 -37.4797 1.82876 -12.252 0.0994 -28.0499 -0.2431 20.4302 -58.7507 -41.5545 -0.0679 -23.3996 -0.1402 28.857 14.6665 25.0472 -0.793201 -9.0691 2.5189 -3.18055e-015 3.18055e-015 6.36111e-015 0.827201 -3.3923 0.5977 -1.76556e-031 3.18055e-015 3.18055e-015 0.565 -2.3158 0.4082 3.18055e-015 1.27222e-014 3.18055e-015 -0.916001 -9.2044 0.2193 -3.18055e-015 3.18055e-015 6.36111e-015 -0.0117 -4.1944 -0.0248 0.0129219 0.00231265 -8.45676e-005 -0.0071 -2.3249 -0.0142 -9.54166e-015 0 -0 -0.6113 -8.7231 -2.0637 -3.18055e-015 3.18055e-015 6.36111e-015 0.1927 -3.8059 -0.2383 0.0163396 0.00303545 -0.000872488 0.1091 -2.1688 -0.1362 -3.18055e-015 3.18055e-015 -0 0.615101 -8.0947 -3.564 -3.18055e-015 3.18055e-015 6.36111e-015 0.4882 -2.341 -0.6462 0.0145734 0.00367335 -0.00326029 0.3574 -1.7166 -0.4742 9.54166e-015 -6.36111e-015 -3.18055e-015 1.4199 -1.8761 1.4221 -3.18055e-015 3.18055e-015 6.36111e-015 1.1472 -3.4929 2.6336 -1.76556e-031 3.18055e-015 3.18055e-015 0.822901 -2.3 1.6571 3.18055e-015 1.27222e-014 3.18055e-015 -9.412 3.9771 -0.7758 -132.129 -57.769 -153.966 -0.7531 -40.938 -8.88178e-016 76.665 18.4151 -96.5065 -8.88179e-016 -40.1986 -7.10543e-015 1.50348 4.54497 -6.37891 0 -4.4182 9.239 4.4921e-007 -2.91872e-006 6.96322e-007 9.4119 3.9773 -0.7758 135.454 -57.8949 155.436 0.7532 -40.9383 1.77636e-015 -76.1094 13.3326 61.1805 3.55271e-015 -40.1986 7.10543e-015 1.74162 4.60838 5.23007 0 -4.4182 9.239 3.18055e-015 9.54166e-015 1.59028e-015 
